<svg width="718" height="188" viewBox="0 0 718 188" fill="none" xmlns="http://www.w3.org/2000/svg">
<mask id="path-1-outside-1_1123_103" maskUnits="userSpaceOnUse" x="5" y="4" width="259" height="179" fill="black">
<rect fill="white" x="5" y="4" width="259" height="179"/>
<path d="M80.5038 34.3674L76.9968 84.3614L61.6757 85.9717L63.4091 61.117L54.1191 86.7659L40.9471 88.1504L35.102 63.8819L33.3905 88.9446L18 90.5622L21.507 40.5682L40.3638 38.5863L49.0833 67.5292L61.7163 36.3421L80.5038 34.3674Z"/>
<path d="M103.012 44.338L102.613 50.548L117.865 48.945L117.002 60.7411L101.75 62.3441L101.231 69.4079L118.563 67.5863L117.703 80.083L84.9813 83.5222L88.4882 33.5282L121.21 30.089L120.344 42.5163L103.012 44.338Z"/>
<path d="M148.502 27.2206C153.031 26.7445 157.001 27.1684 160.411 28.4922C163.816 29.7698 166.529 31.7976 168.55 34.5758C170.566 37.3078 171.776 40.5918 172.179 44.4279C172.339 45.9531 172.373 47.6084 172.28 49.3938C171.939 54.1492 170.579 58.5445 168.199 62.5796C165.866 66.6098 162.687 69.9345 158.663 72.5536C154.681 75.1217 150.125 76.6753 144.995 77.2145L124.543 79.364L128.05 29.3701L148.502 27.2206ZM144.592 63.3786C148.058 63.0143 150.87 61.7608 153.028 59.6181C155.232 57.4706 156.45 54.609 156.682 51.0333C156.723 50.0943 156.703 49.232 156.62 48.4463C156.334 45.7195 155.26 43.7296 153.399 42.4766C151.585 41.2187 149.176 40.7476 146.172 41.0634L142.497 41.4496L140.918 63.7648L144.592 63.3786Z"/>
<path d="M196.002 22.2281L192.495 72.2221L177.104 73.8397L180.611 23.8457L196.002 22.2281Z"/>
<path d="M232.497 60.5177L216.136 62.2373L213.172 70.0488L197.019 71.7465L218.482 19.8653L236.229 18L250.609 66.114L234.386 67.8191L232.497 60.5177ZM229.617 49.1151L226.171 35.6691L220.743 50.0478L229.617 49.1151Z"/>
<path d="M53.9651 169.194C46.1543 170.015 39.7415 169.11 34.7266 166.478C29.7718 163.84 26.9787 159.517 26.3472 153.509C26.2841 152.908 26.2494 152 26.2433 150.786L47.5126 148.55C47.5282 150.432 47.9438 151.785 48.7595 152.611C49.6353 153.43 50.9444 153.748 52.6868 153.565C53.7683 153.451 54.6411 153.086 55.3053 152.47C55.9695 151.853 56.2479 151.034 56.1405 150.013C55.9889 148.571 55.1417 147.445 53.5986 146.635C52.1157 145.819 49.7426 144.914 46.4793 143.921C42.903 142.839 39.9339 141.754 37.5719 140.665C35.27 139.571 33.1879 137.967 31.3257 135.855C29.4635 133.742 28.3524 130.973 27.9925 127.549C27.5189 123.042 28.2231 119.05 30.1051 115.572C32.041 112.028 34.9332 109.203 38.782 107.097C42.6307 104.992 47.1387 103.668 52.3058 103.124C56.9322 102.638 61.1236 102.927 64.8802 103.99C68.6968 105.047 71.7718 106.849 74.1051 109.399C76.4921 111.881 77.8814 114.985 78.273 118.71C78.3235 119.191 78.3518 120.038 78.358 121.253L56.8182 123.517C56.8626 122.783 56.8722 122.296 56.8469 122.056C56.7269 120.914 56.3049 120.078 55.5808 119.546C54.8505 118.955 53.9145 118.719 52.7729 118.839C51.7515 118.946 50.9419 119.335 50.3441 120.006C49.7464 120.676 49.498 121.492 49.5991 122.453C49.738 123.775 50.5521 124.874 52.0414 125.75C53.5243 126.566 55.8436 127.537 58.9993 128.664C62.5946 129.926 65.5795 131.161 67.9541 132.369C70.3888 133.571 72.5436 135.289 74.4184 137.522C76.287 139.694 77.4012 142.493 77.7612 145.918C78.1716 149.823 77.4896 153.449 75.7151 156.794C74.0006 160.133 71.2855 162.909 67.5695 165.122C63.8473 167.275 59.3124 168.632 53.9651 169.194Z"/>
<path d="M182.163 90.5694L163.003 157.096L138.129 159.71L133.33 123.585L123.349 161.264L98.4744 163.878L88.4333 100.421L109.973 98.1568L112.936 138.485L124.393 96.6412L146.203 94.3489L151.96 134.383L160.623 92.8333L182.163 90.5694Z"/>
<path d="M186.643 122.264C187.061 115.841 188.724 109.987 191.631 104.7C194.538 99.4134 198.463 95.1435 203.406 91.8903C208.343 88.5771 214.025 86.5827 220.454 85.907C225.982 85.326 230.839 85.8786 235.025 87.5647C239.266 89.1844 242.636 91.7763 245.137 95.3405C247.638 98.9047 249.123 103.213 249.594 108.267L228.504 110.483C227.683 108.444 226.431 106.935 224.748 105.958C223.06 104.92 221.074 104.521 218.791 104.761C215.426 105.115 212.675 106.68 210.537 109.456C208.399 112.232 207.194 115.791 206.921 120.133C206.807 121.359 206.822 122.664 206.968 124.046C207.296 127.17 208.306 129.555 209.998 131.199C211.749 132.838 214.037 133.508 216.861 133.211C219.144 132.971 221.217 132.177 223.08 130.827C224.936 129.416 226.415 127.591 227.516 125.349L248.605 123.132C247.333 128.369 245.183 133.059 242.156 137.205C239.129 141.35 235.353 144.723 230.828 147.325C226.356 149.86 221.356 151.419 215.829 152C210.241 152.587 205.357 152.067 201.177 150.441C196.99 148.755 193.677 146.127 191.236 142.556C188.789 138.926 187.3 134.587 186.77 129.54C186.511 127.077 186.469 124.651 186.643 122.264Z"/>
</mask>
<path d="M80.5038 34.3674L76.9968 84.3614L61.6757 85.9717L63.4091 61.117L54.1191 86.7659L40.9471 88.1504L35.102 63.8819L33.3905 88.9446L18 90.5622L21.507 40.5682L40.3638 38.5863L49.0833 67.5292L61.7163 36.3421L80.5038 34.3674Z" fill="#0F1A44"/>
<path d="M103.012 44.338L102.613 50.548L117.865 48.945L117.002 60.7411L101.75 62.3441L101.231 69.4079L118.563 67.5863L117.703 80.083L84.9813 83.5222L88.4882 33.5282L121.21 30.089L120.344 42.5163L103.012 44.338Z" fill="#0F1A44"/>
<path d="M148.502 27.2206C153.031 26.7445 157.001 27.1684 160.411 28.4922C163.816 29.7698 166.529 31.7976 168.55 34.5758C170.566 37.3078 171.776 40.5918 172.179 44.4279C172.339 45.9531 172.373 47.6084 172.28 49.3938C171.939 54.1492 170.579 58.5445 168.199 62.5796C165.866 66.6098 162.687 69.9345 158.663 72.5536C154.681 75.1217 150.125 76.6753 144.995 77.2145L124.543 79.364L128.05 29.3701L148.502 27.2206ZM144.592 63.3786C148.058 63.0143 150.87 61.7608 153.028 59.6181C155.232 57.4706 156.45 54.609 156.682 51.0333C156.723 50.0943 156.703 49.232 156.62 48.4463C156.334 45.7195 155.26 43.7296 153.399 42.4766C151.585 41.2187 149.176 40.7476 146.172 41.0634L142.497 41.4496L140.918 63.7648L144.592 63.3786Z" fill="#0F1A44"/>
<path d="M196.002 22.2281L192.495 72.2221L177.104 73.8397L180.611 23.8457L196.002 22.2281Z" fill="#0F1A44"/>
<path d="M232.497 60.5177L216.136 62.2373L213.172 70.0488L197.019 71.7465L218.482 19.8653L236.229 18L250.609 66.114L234.386 67.8191L232.497 60.5177ZM229.617 49.1151L226.171 35.6691L220.743 50.0478L229.617 49.1151Z" fill="#0F1A44"/>
<path d="M53.9651 169.194C46.1543 170.015 39.7415 169.11 34.7266 166.478C29.7718 163.84 26.9787 159.517 26.3472 153.509C26.2841 152.908 26.2494 152 26.2433 150.786L47.5126 148.55C47.5282 150.432 47.9438 151.785 48.7595 152.611C49.6353 153.43 50.9444 153.748 52.6868 153.565C53.7683 153.451 54.6411 153.086 55.3053 152.47C55.9695 151.853 56.2479 151.034 56.1405 150.013C55.9889 148.571 55.1417 147.445 53.5986 146.635C52.1157 145.819 49.7426 144.914 46.4793 143.921C42.903 142.839 39.9339 141.754 37.5719 140.665C35.27 139.571 33.1879 137.967 31.3257 135.855C29.4635 133.742 28.3524 130.973 27.9925 127.549C27.5189 123.042 28.2231 119.05 30.1051 115.572C32.041 112.028 34.9332 109.203 38.782 107.097C42.6307 104.992 47.1387 103.668 52.3058 103.124C56.9322 102.638 61.1236 102.927 64.8802 103.99C68.6968 105.047 71.7718 106.849 74.1051 109.399C76.4921 111.881 77.8814 114.985 78.273 118.71C78.3235 119.191 78.3518 120.038 78.358 121.253L56.8182 123.517C56.8626 122.783 56.8722 122.296 56.8469 122.056C56.7269 120.914 56.3049 120.078 55.5808 119.546C54.8505 118.955 53.9145 118.719 52.7729 118.839C51.7515 118.946 50.9419 119.335 50.3441 120.006C49.7464 120.676 49.498 121.492 49.5991 122.453C49.738 123.775 50.5521 124.874 52.0414 125.75C53.5243 126.566 55.8436 127.537 58.9993 128.664C62.5946 129.926 65.5795 131.161 67.9541 132.369C70.3888 133.571 72.5436 135.289 74.4184 137.522C76.287 139.694 77.4012 142.493 77.7612 145.918C78.1716 149.823 77.4896 153.449 75.7151 156.794C74.0006 160.133 71.2855 162.909 67.5695 165.122C63.8473 167.275 59.3124 168.632 53.9651 169.194Z" fill="#0F1A44"/>
<path d="M182.163 90.5694L163.003 157.096L138.129 159.71L133.33 123.585L123.349 161.264L98.4744 163.878L88.4333 100.421L109.973 98.1568L112.936 138.485L124.393 96.6412L146.203 94.3489L151.96 134.383L160.623 92.8333L182.163 90.5694Z" fill="#0F1A44"/>
<path d="M186.643 122.264C187.061 115.841 188.724 109.987 191.631 104.7C194.538 99.4134 198.463 95.1435 203.406 91.8903C208.343 88.5771 214.025 86.5827 220.454 85.907C225.982 85.326 230.839 85.8786 235.025 87.5647C239.266 89.1844 242.636 91.7763 245.137 95.3405C247.638 98.9047 249.123 103.213 249.594 108.267L228.504 110.483C227.683 108.444 226.431 106.935 224.748 105.958C223.06 104.92 221.074 104.521 218.791 104.761C215.426 105.115 212.675 106.68 210.537 109.456C208.399 112.232 207.194 115.791 206.921 120.133C206.807 121.359 206.822 122.664 206.968 124.046C207.296 127.17 208.306 129.555 209.998 131.199C211.749 132.838 214.037 133.508 216.861 133.211C219.144 132.971 221.217 132.177 223.08 130.827C224.936 129.416 226.415 127.591 227.516 125.349L248.605 123.132C247.333 128.369 245.183 133.059 242.156 137.205C239.129 141.35 235.353 144.723 230.828 147.325C226.356 149.86 221.356 151.419 215.829 152C210.241 152.587 205.357 152.067 201.177 150.441C196.99 148.755 193.677 146.127 191.236 142.556C188.789 138.926 187.3 134.587 186.77 129.54C186.511 127.077 186.469 124.651 186.643 122.264Z" fill="#0F1A44"/>
<path d="M80.5038 34.3674L76.9968 84.3614L61.6757 85.9717L63.4091 61.117L54.1191 86.7659L40.9471 88.1504L35.102 63.8819L33.3905 88.9446L18 90.5622L21.507 40.5682L40.3638 38.5863L49.0833 67.5292L61.7163 36.3421L80.5038 34.3674Z" stroke="url(#paint0_linear_1123_103)" stroke-width="26" stroke-linejoin="round" mask="url(#path-1-outside-1_1123_103)"/>
<path d="M103.012 44.338L102.613 50.548L117.865 48.945L117.002 60.7411L101.75 62.3441L101.231 69.4079L118.563 67.5863L117.703 80.083L84.9813 83.5222L88.4882 33.5282L121.21 30.089L120.344 42.5163L103.012 44.338Z" stroke="url(#paint1_linear_1123_103)" stroke-width="26" stroke-linejoin="round" mask="url(#path-1-outside-1_1123_103)"/>
<path d="M148.502 27.2206C153.031 26.7445 157.001 27.1684 160.411 28.4922C163.816 29.7698 166.529 31.7976 168.55 34.5758C170.566 37.3078 171.776 40.5918 172.179 44.4279C172.339 45.9531 172.373 47.6084 172.28 49.3938C171.939 54.1492 170.579 58.5445 168.199 62.5796C165.866 66.6098 162.687 69.9345 158.663 72.5536C154.681 75.1217 150.125 76.6753 144.995 77.2145L124.543 79.364L128.05 29.3701L148.502 27.2206ZM144.592 63.3786C148.058 63.0143 150.87 61.7608 153.028 59.6181C155.232 57.4706 156.45 54.609 156.682 51.0333C156.723 50.0943 156.703 49.232 156.62 48.4463C156.334 45.7195 155.26 43.7296 153.399 42.4766C151.585 41.2187 149.176 40.7476 146.172 41.0634L142.497 41.4496L140.918 63.7648L144.592 63.3786Z" stroke="url(#paint2_linear_1123_103)" stroke-width="26" stroke-linejoin="round" mask="url(#path-1-outside-1_1123_103)"/>
<path d="M196.002 22.2281L192.495 72.2221L177.104 73.8397L180.611 23.8457L196.002 22.2281Z" stroke="url(#paint3_linear_1123_103)" stroke-width="26" stroke-linejoin="round" mask="url(#path-1-outside-1_1123_103)"/>
<path d="M232.497 60.5177L216.136 62.2373L213.172 70.0488L197.019 71.7465L218.482 19.8653L236.229 18L250.609 66.114L234.386 67.8191L232.497 60.5177ZM229.617 49.1151L226.171 35.6691L220.743 50.0478L229.617 49.1151Z" stroke="url(#paint4_linear_1123_103)" stroke-width="26" stroke-linejoin="round" mask="url(#path-1-outside-1_1123_103)"/>
<path d="M53.9651 169.194C46.1543 170.015 39.7415 169.11 34.7266 166.478C29.7718 163.84 26.9787 159.517 26.3472 153.509C26.2841 152.908 26.2494 152 26.2433 150.786L47.5126 148.55C47.5282 150.432 47.9438 151.785 48.7595 152.611C49.6353 153.43 50.9444 153.748 52.6868 153.565C53.7683 153.451 54.6411 153.086 55.3053 152.47C55.9695 151.853 56.2479 151.034 56.1405 150.013C55.9889 148.571 55.1417 147.445 53.5986 146.635C52.1157 145.819 49.7426 144.914 46.4793 143.921C42.903 142.839 39.9339 141.754 37.5719 140.665C35.27 139.571 33.1879 137.967 31.3257 135.855C29.4635 133.742 28.3524 130.973 27.9925 127.549C27.5189 123.042 28.2231 119.05 30.1051 115.572C32.041 112.028 34.9332 109.203 38.782 107.097C42.6307 104.992 47.1387 103.668 52.3058 103.124C56.9322 102.638 61.1236 102.927 64.8802 103.99C68.6968 105.047 71.7718 106.849 74.1051 109.399C76.4921 111.881 77.8814 114.985 78.273 118.71C78.3235 119.191 78.3518 120.038 78.358 121.253L56.8182 123.517C56.8626 122.783 56.8722 122.296 56.8469 122.056C56.7269 120.914 56.3049 120.078 55.5808 119.546C54.8505 118.955 53.9145 118.719 52.7729 118.839C51.7515 118.946 50.9419 119.335 50.3441 120.006C49.7464 120.676 49.498 121.492 49.5991 122.453C49.738 123.775 50.5521 124.874 52.0414 125.75C53.5243 126.566 55.8436 127.537 58.9993 128.664C62.5946 129.926 65.5795 131.161 67.9541 132.369C70.3888 133.571 72.5436 135.289 74.4184 137.522C76.287 139.694 77.4012 142.493 77.7612 145.918C78.1716 149.823 77.4896 153.449 75.7151 156.794C74.0006 160.133 71.2855 162.909 67.5695 165.122C63.8473 167.275 59.3124 168.632 53.9651 169.194Z" stroke="url(#paint5_linear_1123_103)" stroke-width="26" stroke-linejoin="round" mask="url(#path-1-outside-1_1123_103)"/>
<path d="M182.163 90.5694L163.003 157.096L138.129 159.71L133.33 123.585L123.349 161.264L98.4744 163.878L88.4333 100.421L109.973 98.1568L112.936 138.485L124.393 96.6412L146.203 94.3489L151.96 134.383L160.623 92.8333L182.163 90.5694Z" stroke="url(#paint6_linear_1123_103)" stroke-width="26" stroke-linejoin="round" mask="url(#path-1-outside-1_1123_103)"/>
<path d="M186.643 122.264C187.061 115.841 188.724 109.987 191.631 104.7C194.538 99.4134 198.463 95.1435 203.406 91.8903C208.343 88.5771 214.025 86.5827 220.454 85.907C225.982 85.326 230.839 85.8786 235.025 87.5647C239.266 89.1844 242.636 91.7763 245.137 95.3405C247.638 98.9047 249.123 103.213 249.594 108.267L228.504 110.483C227.683 108.444 226.431 106.935 224.748 105.958C223.06 104.92 221.074 104.521 218.791 104.761C215.426 105.115 212.675 106.68 210.537 109.456C208.399 112.232 207.194 115.791 206.921 120.133C206.807 121.359 206.822 122.664 206.968 124.046C207.296 127.17 208.306 129.555 209.998 131.199C211.749 132.838 214.037 133.508 216.861 133.211C219.144 132.971 221.217 132.177 223.08 130.827C224.936 129.416 226.415 127.591 227.516 125.349L248.605 123.132C247.333 128.369 245.183 133.059 242.156 137.205C239.129 141.35 235.353 144.723 230.828 147.325C226.356 149.86 221.356 151.419 215.829 152C210.241 152.587 205.357 152.067 201.177 150.441C196.99 148.755 193.677 146.127 191.236 142.556C188.789 138.926 187.3 134.587 186.77 129.54C186.511 127.077 186.469 124.651 186.643 122.264Z" stroke="url(#paint7_linear_1123_103)" stroke-width="26" stroke-linejoin="round" mask="url(#path-1-outside-1_1123_103)"/>
<path d="M306.777 62.2441V26.4841H313.977L325.641 41.9881L337.017 26.4841H344.217V62.2441H336.777V39.2041L325.977 53.1241H325.017L314.217 38.6761V62.2441H306.777ZM362.654 62.8201C359.87 62.8201 357.454 62.2121 355.406 60.9961C353.358 59.7481 351.774 58.0841 350.654 56.0041C349.534 53.9241 348.974 51.6201 348.974 49.0921C348.974 46.4681 349.55 44.1321 350.702 42.0841C351.886 40.0361 353.47 38.4201 355.454 37.2361C357.438 36.0521 359.678 35.4601 362.174 35.4601C364.958 35.4601 367.31 36.0361 369.23 37.1881C371.15 38.3401 372.606 39.8921 373.598 41.8441C374.622 43.7641 375.134 45.9401 375.134 48.3721C375.134 48.8841 375.102 49.3961 375.038 49.9081C375.006 50.3881 374.926 50.8041 374.798 51.1561H356.462C356.654 52.7881 357.31 54.1001 358.43 55.0921C359.55 56.0841 360.99 56.5801 362.75 56.5801C364.03 56.5801 365.118 56.3241 366.014 55.8121C366.942 55.3001 367.662 54.5961 368.174 53.7001L373.934 56.4361C373.134 58.3561 371.726 59.9081 369.71 61.0921C367.694 62.2441 365.342 62.8201 362.654 62.8201ZM362.174 41.2201C360.766 41.2201 359.566 41.6201 358.574 42.4201C357.614 43.2201 356.958 44.3721 356.606 45.8761H367.502C367.342 44.5001 366.782 43.3801 365.822 42.5161C364.862 41.6521 363.646 41.2201 362.174 41.2201ZM391.71 62.8201C389.15 62.8201 386.862 62.2121 384.846 60.9961C382.83 59.7801 381.23 58.1321 380.046 56.0521C378.894 53.9721 378.318 51.6681 378.318 49.1401C378.318 46.5801 378.91 44.2761 380.094 42.2281C381.278 40.1481 382.878 38.5001 384.894 37.2841C386.91 36.0681 389.166 35.4601 391.662 35.4601C394.83 35.4601 397.342 36.3881 399.198 38.2441V25.9081H406.398V62.2441H399.678V59.7481C398.75 60.7401 397.582 61.5081 396.174 62.0521C394.798 62.5641 393.31 62.8201 391.71 62.8201ZM392.574 56.3401C394.526 56.3401 396.11 55.6841 397.326 54.3721C398.574 53.0281 399.198 51.2841 399.198 49.1401C399.198 47.0281 398.574 45.3001 397.326 43.9561C396.11 42.6121 394.526 41.9401 392.574 41.9401C390.59 41.9401 388.958 42.6281 387.678 44.0041C386.398 45.3481 385.758 47.0601 385.758 49.1401C385.758 51.2521 386.398 52.9801 387.678 54.3241C388.958 55.6681 390.59 56.3401 392.574 56.3401ZM411.671 33.6841V26.4841H418.871V33.6841H411.671ZM411.671 62.2441V36.0361H418.871V62.2441H411.671ZM432.251 62.8201C429.435 62.8201 427.195 62.1481 425.531 60.8041C423.899 59.4601 423.083 57.6041 423.083 55.2361C423.083 53.0281 423.851 51.2041 425.387 49.7641C426.923 48.3241 429.259 47.3481 432.395 46.8361L439.643 45.6841V44.9641C439.643 43.9721 439.243 43.1401 438.443 42.4681C437.675 41.7961 436.619 41.4601 435.275 41.4601C433.995 41.4601 432.859 41.8121 431.867 42.5161C430.907 43.2201 430.203 44.1481 429.755 45.3001L423.995 42.5641C424.763 40.3881 426.187 38.6601 428.267 37.3801C430.379 36.1001 432.827 35.4601 435.611 35.4601C437.819 35.4601 439.771 35.8601 441.467 36.6601C443.163 37.4601 444.475 38.5801 445.403 40.0201C446.363 41.4281 446.843 43.0761 446.843 44.9641V62.2441H440.123V59.7961C438.139 61.8121 435.515 62.8201 432.251 62.8201ZM430.523 54.9961C430.523 55.7961 430.827 56.4201 431.435 56.8681C432.043 57.3161 432.795 57.5401 433.691 57.5401C435.483 57.5401 436.923 56.9801 438.011 55.8601C439.099 54.7401 439.643 53.3801 439.643 51.7801V50.9641L433.691 52.0201C432.667 52.2121 431.883 52.5481 431.339 53.0281C430.795 53.4761 430.523 54.1321 430.523 54.9961ZM461.277 62.2441V26.4841H468.717V62.2441H461.277ZM474.53 62.2441V36.0361H481.25V39.2521C481.922 37.9721 482.898 37.0281 484.178 36.4201C485.458 35.7801 486.93 35.4601 488.594 35.4601C490.578 35.4601 492.306 35.8761 493.778 36.7081C495.282 37.5401 496.45 38.7081 497.282 40.2121C498.114 41.6841 498.53 43.4121 498.53 45.3961V62.2441H491.33V46.9321C491.33 45.4281 490.882 44.2281 489.986 43.3321C489.09 42.4041 487.938 41.9401 486.53 41.9401C485.122 41.9401 483.97 42.4041 483.074 43.3321C482.178 44.2281 481.73 45.4281 481.73 46.9321V62.2441H474.53ZM506.432 62.2441V42.2761H502.016V36.0361H506.432V35.6521C506.432 32.5481 507.328 30.1481 509.12 28.4521C510.944 26.7561 513.488 25.9081 516.752 25.9081C517.712 25.9081 518.56 25.9881 519.296 26.1481V32.2921C518.688 32.1961 518.16 32.1481 517.712 32.1481C514.992 32.1481 513.632 33.3161 513.632 35.6521V36.0361H519.248V42.2761H513.632V62.2441H506.432ZM535.491 62.8201C532.899 62.8201 530.531 62.2281 528.387 61.0441C526.275 59.8601 524.579 58.2441 523.299 56.1961C522.051 54.1161 521.427 51.7641 521.427 49.1401C521.427 46.4841 522.051 44.1321 523.299 42.0841C524.579 40.0361 526.275 38.4201 528.387 37.2361C530.531 36.0521 532.899 35.4601 535.491 35.4601C538.083 35.4601 540.435 36.0521 542.547 37.2361C544.659 38.4201 546.339 40.0361 547.587 42.0841C548.867 44.1321 549.507 46.4841 549.507 49.1401C549.507 51.7641 548.867 54.1161 547.587 56.1961C546.339 58.2441 544.659 59.8601 542.547 61.0441C540.435 62.2281 538.083 62.8201 535.491 62.8201ZM535.491 56.3401C537.443 56.3401 539.027 55.6681 540.243 54.3241C541.459 52.9801 542.067 51.2521 542.067 49.1401C542.067 47.0601 541.459 45.3481 540.243 44.0041C539.027 42.6281 537.443 41.9401 535.491 41.9401C533.539 41.9401 531.939 42.6281 530.691 44.0041C529.475 45.3481 528.867 47.0601 528.867 49.1401C528.867 51.2521 529.475 52.9801 530.691 54.3241C531.939 55.6681 533.539 56.3401 535.491 56.3401ZM553.749 62.2441V36.0361H560.469V39.9721C561.141 38.3401 562.085 37.2361 563.301 36.6601C564.549 36.0521 565.973 35.7481 567.573 35.7481H569.109V41.9881H566.853C565.093 41.9881 563.669 42.5321 562.581 43.6201C561.493 44.6761 560.949 46.1801 560.949 48.1321V62.2441H553.749ZM572.264 62.2441V36.0361H578.984V39.2521C579.656 37.9721 580.632 37.0281 581.912 36.4201C583.192 35.7801 584.664 35.4601 586.328 35.4601C588.056 35.4601 589.624 35.8281 591.032 36.5641C592.472 37.2681 593.56 38.2441 594.296 39.4921C595.224 38.1161 596.376 37.1081 597.752 36.4681C599.16 35.7961 600.712 35.4601 602.408 35.4601C604.296 35.4601 605.96 35.8761 607.4 36.7081C608.872 37.5401 610.024 38.7081 610.856 40.2121C611.688 41.6841 612.104 43.4121 612.104 45.3961V62.2441H604.904V46.9321C604.904 45.4281 604.488 44.2281 603.656 43.3321C602.856 42.4041 601.752 41.9401 600.344 41.9401C598.936 41.9401 597.816 42.4041 596.984 43.3321C596.184 44.2281 595.784 45.4281 595.784 46.9321V62.2441H588.584V46.9321C588.584 45.4281 588.168 44.2281 587.336 43.3321C586.536 42.4041 585.432 41.9401 584.024 41.9401C582.616 41.9401 581.496 42.4041 580.664 43.3321C579.864 44.2281 579.464 45.4281 579.464 46.9321V62.2441H572.264ZM624.954 62.8201C622.138 62.8201 619.898 62.1481 618.234 60.8041C616.602 59.4601 615.786 57.6041 615.786 55.2361C615.786 53.0281 616.554 51.2041 618.09 49.7641C619.626 48.3241 621.962 47.3481 625.098 46.8361L632.346 45.6841V44.9641C632.346 43.9721 631.946 43.1401 631.146 42.4681C630.378 41.7961 629.322 41.4601 627.978 41.4601C626.698 41.4601 625.562 41.8121 624.57 42.5161C623.61 43.2201 622.906 44.1481 622.458 45.3001L616.698 42.5641C617.466 40.3881 618.89 38.6601 620.97 37.3801C623.082 36.1001 625.53 35.4601 628.314 35.4601C630.522 35.4601 632.474 35.8601 634.17 36.6601C635.866 37.4601 637.178 38.5801 638.106 40.0201C639.066 41.4281 639.546 43.0761 639.546 44.9641V62.2441H632.826V59.7961C630.842 61.8121 628.218 62.8201 624.954 62.8201ZM623.226 54.9961C623.226 55.7961 623.53 56.4201 624.138 56.8681C624.746 57.3161 625.498 57.5401 626.394 57.5401C628.186 57.5401 629.626 56.9801 630.714 55.8601C631.802 54.7401 632.346 53.3801 632.346 51.7801V50.9641L626.394 52.0201C625.37 52.2121 624.586 52.5481 624.042 53.0281C623.498 53.4761 623.226 54.1321 623.226 54.9961ZM655.099 62.8201C652.219 62.8201 649.707 62.1481 647.563 60.8041C645.451 59.4281 644.011 57.5881 643.243 55.2841L648.523 52.7881C649.195 54.1961 650.107 55.3001 651.259 56.1001C652.411 56.9001 653.691 57.3001 655.099 57.3001C657.211 57.3001 658.267 56.5161 658.267 54.9481C658.267 53.8921 657.403 53.1241 655.675 52.6441L651.211 51.3961C649.067 50.7881 647.419 49.8121 646.267 48.4681C645.115 47.0921 644.539 45.4761 644.539 43.6201C644.539 41.9881 644.955 40.5641 645.787 39.3481C646.619 38.1321 647.787 37.1881 649.291 36.5161C650.795 35.8121 652.523 35.4601 654.475 35.4601C657.035 35.4601 659.275 36.0681 661.195 37.2841C663.147 38.4681 664.523 40.1481 665.323 42.3241L659.995 44.8201C659.611 43.7321 658.907 42.8681 657.883 42.2281C656.891 41.5561 655.755 41.2201 654.475 41.2201C653.547 41.2201 652.811 41.4121 652.267 41.7961C651.755 42.1801 651.499 42.7081 651.499 43.3801C651.499 44.4041 652.443 45.1881 654.331 45.7321L658.507 46.9801C660.683 47.6201 662.347 48.5961 663.499 49.9081C664.651 51.1881 665.227 52.7721 665.227 54.6601C665.227 57.0921 664.299 59.0601 662.443 60.5641C660.587 62.0681 658.139 62.8201 655.099 62.8201ZM669.53 33.6841V26.4841H676.73V33.6841H669.53ZM669.53 62.2441V36.0361H676.73V62.2441H669.53ZM319.785 111.82C317.545 111.82 315.433 111.42 313.449 110.62C311.497 109.788 309.801 108.62 308.361 107.116C306.953 105.612 305.897 103.836 305.193 101.788L311.289 99.0521C312.185 101.004 313.417 102.54 314.985 103.66C316.585 104.78 318.345 105.34 320.265 105.34C321.769 105.34 322.969 105.004 323.865 104.332C324.793 103.628 325.257 102.7 325.257 101.548C325.257 99.8841 324.201 98.7001 322.089 97.9961L315.081 95.6921C309.353 93.8041 306.489 90.4281 306.489 85.5641C306.489 83.4521 307.001 81.5961 308.025 79.9961C309.081 78.3961 310.537 77.1481 312.393 76.2521C314.281 75.3561 316.441 74.9081 318.873 74.9081C322.105 74.9081 324.937 75.7241 327.369 77.3561C329.833 78.9561 331.561 81.1641 332.553 83.9801L326.505 86.7161C325.833 85.0521 324.825 83.7561 323.481 82.8281C322.137 81.8681 320.601 81.3881 318.873 81.3881C317.369 81.3881 316.153 81.7561 315.225 82.4921C314.297 83.1961 313.833 84.1241 313.833 85.2761C313.833 86.9721 314.921 88.1881 317.097 88.9241L323.961 91.1321C329.689 92.9881 332.553 96.3161 332.553 101.116C332.553 103.196 332.009 105.052 330.921 106.684C329.833 108.284 328.329 109.548 326.409 110.476C324.521 111.372 322.313 111.82 319.785 111.82ZM349.951 111.82C347.167 111.82 344.751 111.212 342.703 109.996C340.655 108.748 339.071 107.084 337.951 105.004C336.831 102.924 336.271 100.62 336.271 98.0921C336.271 95.4681 336.847 93.1321 337.999 91.0841C339.183 89.0361 340.767 87.4201 342.751 86.2361C344.735 85.0521 346.975 84.4601 349.471 84.4601C352.255 84.4601 354.607 85.0361 356.527 86.1881C358.447 87.3401 359.903 88.8921 360.895 90.8441C361.919 92.7641 362.431 94.9401 362.431 97.3721C362.431 97.8841 362.399 98.3961 362.335 98.9081C362.303 99.3881 362.223 99.8041 362.095 100.156H343.759C343.951 101.788 344.607 103.1 345.727 104.092C346.847 105.084 348.287 105.58 350.047 105.58C351.327 105.58 352.415 105.324 353.311 104.812C354.239 104.3 354.959 103.596 355.471 102.7L361.231 105.436C360.431 107.356 359.023 108.908 357.007 110.092C354.991 111.244 352.639 111.82 349.951 111.82ZM349.471 90.2201C348.063 90.2201 346.863 90.6201 345.871 91.4201C344.911 92.2201 344.255 93.3721 343.903 94.8761H354.799C354.639 93.5001 354.079 92.3801 353.119 91.5161C352.159 90.6521 350.943 90.2201 349.471 90.2201ZM366.671 120.844V85.0361H373.391V87.7721C375.247 85.5641 377.919 84.4601 381.407 84.4601C383.903 84.4601 386.159 85.0681 388.175 86.2841C390.191 87.5001 391.791 89.1481 392.975 91.2281C394.159 93.2761 394.751 95.5801 394.751 98.1401C394.751 100.668 394.159 102.972 392.975 105.052C391.823 107.132 390.239 108.78 388.223 109.996C386.207 111.212 383.919 111.82 381.359 111.82C379.887 111.82 378.495 111.612 377.183 111.196C375.903 110.748 374.799 110.092 373.871 109.228V120.844H366.671ZM380.495 105.34C382.479 105.34 384.111 104.668 385.391 103.324C386.671 101.98 387.311 100.252 387.311 98.1401C387.311 96.0601 386.671 94.3481 385.391 93.0041C384.111 91.6281 382.479 90.9401 380.495 90.9401C378.543 90.9401 376.943 91.6121 375.695 92.9561C374.479 94.3001 373.871 96.0281 373.871 98.1401C373.871 100.284 374.479 102.028 375.695 103.372C376.943 104.684 378.543 105.34 380.495 105.34ZM408.375 111.82C405.175 111.82 402.711 110.828 400.983 108.844C399.287 106.828 398.439 104.188 398.439 100.924V85.0361H405.639V100.348C405.639 101.852 406.087 103.068 406.983 103.996C407.879 104.892 409.031 105.34 410.439 105.34C411.847 105.34 412.999 104.892 413.895 103.996C414.791 103.068 415.239 101.852 415.239 100.348V85.0361H422.439V111.244H415.719V108.028C415.047 109.308 414.071 110.268 412.791 110.908C411.511 111.516 410.039 111.82 408.375 111.82ZM440.326 111.532C437.158 111.532 434.694 110.684 432.934 108.988C431.206 107.26 430.342 104.86 430.342 101.788V91.2761H425.926V85.0361H426.166C428.95 85.0361 430.342 83.6921 430.342 81.0041V79.0841H437.542V85.0361H443.686V91.2761H437.542V101.308C437.542 103.964 439.03 105.292 442.006 105.292C442.454 105.292 443.014 105.244 443.686 105.148V111.244C443.206 111.308 442.662 111.372 442.054 111.436C441.446 111.5 440.87 111.532 440.326 111.532ZM456.017 111.82C453.201 111.82 450.961 111.148 449.297 109.804C447.665 108.46 446.849 106.604 446.849 104.236C446.849 102.028 447.617 100.204 449.153 98.7641C450.689 97.3241 453.025 96.3481 456.161 95.8361L463.409 94.6841V93.9641C463.409 92.9721 463.009 92.1401 462.209 91.4681C461.441 90.7961 460.385 90.4601 459.041 90.4601C457.761 90.4601 456.625 90.8121 455.633 91.5161C454.673 92.2201 453.969 93.1481 453.521 94.3001L447.761 91.5641C448.529 89.3881 449.953 87.6601 452.033 86.3801C454.145 85.1001 456.593 84.4601 459.377 84.4601C461.585 84.4601 463.537 84.8601 465.233 85.6601C466.929 86.4601 468.241 87.5801 469.169 89.0201C470.129 90.4281 470.609 92.0761 470.609 93.9641V111.244H463.889V108.796C461.905 110.812 459.281 111.82 456.017 111.82ZM454.289 103.996C454.289 104.796 454.593 105.42 455.201 105.868C455.809 106.316 456.561 106.54 457.457 106.54C459.249 106.54 460.689 105.98 461.777 104.86C462.865 103.74 463.409 102.38 463.409 100.78V99.9641L457.457 101.02C456.433 101.212 455.649 101.548 455.105 102.028C454.561 102.476 454.289 103.132 454.289 103.996ZM475.889 111.244V85.0361H482.609V88.9721C483.281 87.3401 484.225 86.2361 485.441 85.6601C486.689 85.0521 488.113 84.7481 489.713 84.7481H491.249V90.9881H488.993C487.233 90.9881 485.809 91.5321 484.721 92.6201C483.633 93.6761 483.089 95.1801 483.089 97.1321V111.244H475.889ZM503.558 111.244V75.4841H515.222C519.094 75.4841 522.454 76.2521 525.302 77.7881C528.15 79.3241 530.358 81.4361 531.926 84.1241C533.494 86.8121 534.278 89.8841 534.278 93.3401C534.278 96.7961 533.494 99.8841 531.926 102.604C530.358 105.292 528.15 107.404 525.302 108.94C522.454 110.476 519.094 111.244 515.222 111.244H503.558ZM510.998 104.764H515.414C517.75 104.764 519.766 104.3 521.462 103.372C523.158 102.412 524.47 101.084 525.398 99.3881C526.358 97.6601 526.838 95.6441 526.838 93.3401C526.838 91.0041 526.358 88.9881 525.398 87.2921C524.47 85.5961 523.158 84.2841 521.462 83.3561C519.766 82.4281 517.75 81.9641 515.414 81.9641H510.998V104.764ZM551.138 111.82C548.354 111.82 545.938 111.212 543.89 109.996C541.842 108.748 540.258 107.084 539.138 105.004C538.018 102.924 537.458 100.62 537.458 98.0921C537.458 95.4681 538.034 93.1321 539.186 91.0841C540.37 89.0361 541.954 87.4201 543.938 86.2361C545.922 85.0521 548.162 84.4601 550.658 84.4601C553.442 84.4601 555.794 85.0361 557.714 86.1881C559.634 87.3401 561.09 88.8921 562.082 90.8441C563.106 92.7641 563.618 94.9401 563.618 97.3721C563.618 97.8841 563.586 98.3961 563.522 98.9081C563.49 99.3881 563.41 99.8041 563.282 100.156H544.946C545.138 101.788 545.794 103.1 546.914 104.092C548.034 105.084 549.474 105.58 551.234 105.58C552.514 105.58 553.602 105.324 554.498 104.812C555.426 104.3 556.146 103.596 556.658 102.7L562.418 105.436C561.618 107.356 560.21 108.908 558.194 110.092C556.178 111.244 553.826 111.82 551.138 111.82ZM550.658 90.2201C549.25 90.2201 548.05 90.6201 547.058 91.4201C546.098 92.2201 545.442 93.3721 545.09 94.8761H555.986C555.826 93.5001 555.266 92.3801 554.306 91.5161C553.346 90.6521 552.13 90.2201 550.658 90.2201ZM578.13 111.82C575.25 111.82 572.738 111.148 570.594 109.804C568.482 108.428 567.042 106.588 566.274 104.284L571.554 101.788C572.226 103.196 573.138 104.3 574.29 105.1C575.442 105.9 576.722 106.3 578.13 106.3C580.242 106.3 581.298 105.516 581.298 103.948C581.298 102.892 580.434 102.124 578.706 101.644L574.242 100.396C572.098 99.7881 570.45 98.8121 569.298 97.4681C568.146 96.0921 567.57 94.4761 567.57 92.6201C567.57 90.9881 567.986 89.5641 568.818 88.3481C569.65 87.1321 570.818 86.1881 572.322 85.5161C573.826 84.8121 575.554 84.4601 577.506 84.4601C580.066 84.4601 582.306 85.0681 584.226 86.2841C586.178 87.4681 587.554 89.1481 588.354 91.3241L583.026 93.8201C582.642 92.7321 581.938 91.8681 580.914 91.2281C579.922 90.5561 578.786 90.2201 577.506 90.2201C576.578 90.2201 575.842 90.4121 575.298 90.7961C574.786 91.1801 574.53 91.7081 574.53 92.3801C574.53 93.4041 575.474 94.1881 577.362 94.7321L581.538 95.9801C583.714 96.6201 585.378 97.5961 586.53 98.9081C587.682 100.188 588.258 101.772 588.258 103.66C588.258 106.092 587.33 108.06 585.474 109.564C583.618 111.068 581.17 111.82 578.13 111.82ZM600.673 111.82C597.857 111.82 595.617 111.148 593.953 109.804C592.321 108.46 591.505 106.604 591.505 104.236C591.505 102.028 592.273 100.204 593.809 98.7641C595.345 97.3241 597.681 96.3481 600.817 95.8361L608.065 94.6841V93.9641C608.065 92.9721 607.665 92.1401 606.865 91.4681C606.097 90.7961 605.041 90.4601 603.697 90.4601C602.417 90.4601 601.281 90.8121 600.289 91.5161C599.329 92.2201 598.625 93.1481 598.177 94.3001L592.417 91.5641C593.185 89.3881 594.609 87.6601 596.689 86.3801C598.801 85.1001 601.249 84.4601 604.033 84.4601C606.241 84.4601 608.193 84.8601 609.889 85.6601C611.585 86.4601 612.897 87.5801 613.825 89.0201C614.785 90.4281 615.265 92.0761 615.265 93.9641V111.244H608.545V108.796C606.561 110.812 603.937 111.82 600.673 111.82ZM598.945 103.996C598.945 104.796 599.249 105.42 599.857 105.868C600.465 106.316 601.217 106.54 602.113 106.54C603.905 106.54 605.345 105.98 606.433 104.86C607.521 103.74 608.065 102.38 608.065 100.78V99.9641L602.113 101.02C601.089 101.212 600.305 101.548 599.761 102.028C599.217 102.476 598.945 103.132 598.945 103.996ZM319.785 160.82C317.545 160.82 315.433 160.42 313.449 159.62C311.497 158.788 309.801 157.62 308.361 156.116C306.953 154.612 305.897 152.836 305.193 150.788L311.289 148.052C312.185 150.004 313.417 151.54 314.985 152.66C316.585 153.78 318.345 154.34 320.265 154.34C321.769 154.34 322.969 154.004 323.865 153.332C324.793 152.628 325.257 151.7 325.257 150.548C325.257 148.884 324.201 147.7 322.089 146.996L315.081 144.692C309.353 142.804 306.489 139.428 306.489 134.564C306.489 132.452 307.001 130.596 308.025 128.996C309.081 127.396 310.537 126.148 312.393 125.252C314.281 124.356 316.441 123.908 318.873 123.908C322.105 123.908 324.937 124.724 327.369 126.356C329.833 127.956 331.561 130.164 332.553 132.98L326.505 135.716C325.833 134.052 324.825 132.756 323.481 131.828C322.137 130.868 320.601 130.388 318.873 130.388C317.369 130.388 316.153 130.756 315.225 131.492C314.297 132.196 313.833 133.124 313.833 134.276C313.833 135.972 314.921 137.188 317.097 137.924L323.961 140.132C329.689 141.988 332.553 145.316 332.553 150.116C332.553 152.196 332.009 154.052 330.921 155.684C329.833 157.284 328.329 158.548 326.409 159.476C324.521 160.372 322.313 160.82 319.785 160.82ZM345.439 160.82C342.623 160.82 340.383 160.148 338.719 158.804C337.087 157.46 336.271 155.604 336.271 153.236C336.271 151.028 337.039 149.204 338.575 147.764C340.111 146.324 342.447 145.348 345.583 144.836L352.831 143.684V142.964C352.831 141.972 352.431 141.14 351.631 140.468C350.863 139.796 349.807 139.46 348.463 139.46C347.183 139.46 346.047 139.812 345.055 140.516C344.095 141.22 343.391 142.148 342.943 143.3L337.183 140.564C337.951 138.388 339.375 136.66 341.455 135.38C343.567 134.1 346.015 133.46 348.799 133.46C351.007 133.46 352.959 133.86 354.655 134.66C356.351 135.46 357.663 136.58 358.591 138.02C359.551 139.428 360.031 141.076 360.031 142.964V160.244H353.311V157.796C351.327 159.812 348.703 160.82 345.439 160.82ZM343.711 152.996C343.711 153.796 344.015 154.42 344.623 154.868C345.231 155.316 345.983 155.54 346.879 155.54C348.671 155.54 350.111 154.98 351.199 153.86C352.287 152.74 352.831 151.38 352.831 149.78V148.964L346.879 150.02C345.855 150.212 345.071 150.548 344.527 151.028C343.983 151.476 343.711 152.132 343.711 152.996ZM372.223 160.244L363.199 134.036H370.639L375.727 149.252L381.439 134.036H387.679L393.343 149.252L398.431 134.036H405.919L396.847 160.244H390.607L384.559 143.444L378.463 160.244H372.223ZM421.632 160.82C419.04 160.82 416.672 160.228 414.528 159.044C412.416 157.86 410.72 156.244 409.44 154.196C408.192 152.116 407.568 149.764 407.568 147.14C407.568 144.484 408.192 142.132 409.44 140.084C410.72 138.036 412.416 136.42 414.528 135.236C416.672 134.052 419.04 133.46 421.632 133.46C424.224 133.46 426.576 134.052 428.688 135.236C430.8 136.42 432.48 138.036 433.728 140.084C435.008 142.132 435.648 144.484 435.648 147.14C435.648 149.764 435.008 152.116 433.728 154.196C432.48 156.244 430.8 157.86 428.688 159.044C426.576 160.228 424.224 160.82 421.632 160.82ZM421.632 154.34C423.584 154.34 425.168 153.668 426.384 152.324C427.6 150.98 428.208 149.252 428.208 147.14C428.208 145.06 427.6 143.348 426.384 142.004C425.168 140.628 423.584 139.94 421.632 139.94C419.68 139.94 418.08 140.628 416.832 142.004C415.616 143.348 415.008 145.06 415.008 147.14C415.008 149.252 415.616 150.98 416.832 152.324C418.08 153.668 419.68 154.34 421.632 154.34ZM452.753 160.82C450.129 160.82 447.761 160.228 445.649 159.044C443.569 157.828 441.905 156.18 440.657 154.1C439.441 152.02 438.833 149.684 438.833 147.092C438.833 144.5 439.441 142.18 440.657 140.132C441.873 138.052 443.537 136.42 445.649 135.236C447.761 134.052 450.129 133.46 452.753 133.46C454.705 133.46 456.513 133.796 458.177 134.468C459.841 135.14 461.265 136.084 462.449 137.3C463.633 138.484 464.481 139.892 464.993 141.524L458.753 144.212C458.305 142.9 457.537 141.86 456.449 141.092C455.393 140.324 454.161 139.94 452.753 139.94C450.865 139.94 449.313 140.612 448.097 141.956C446.881 143.3 446.273 145.028 446.273 147.14C446.273 149.252 446.881 150.98 448.097 152.324C449.313 153.668 450.865 154.34 452.753 154.34C454.193 154.34 455.441 153.956 456.497 153.188C457.553 152.42 458.305 151.38 458.753 150.068L464.993 152.804C464.513 154.34 463.681 155.716 462.497 156.932C461.313 158.148 459.889 159.108 458.225 159.812C456.561 160.484 454.737 160.82 452.753 160.82ZM477.345 160.82C474.529 160.82 472.289 160.148 470.625 158.804C468.993 157.46 468.177 155.604 468.177 153.236C468.177 151.028 468.945 149.204 470.481 147.764C472.017 146.324 474.353 145.348 477.489 144.836L484.737 143.684V142.964C484.737 141.972 484.337 141.14 483.537 140.468C482.769 139.796 481.713 139.46 480.369 139.46C479.089 139.46 477.953 139.812 476.961 140.516C476.001 141.22 475.297 142.148 474.849 143.3L469.089 140.564C469.857 138.388 471.281 136.66 473.361 135.38C475.473 134.1 477.921 133.46 480.705 133.46C482.913 133.46 484.865 133.86 486.561 134.66C488.257 135.46 489.569 136.58 490.497 138.02C491.457 139.428 491.937 141.076 491.937 142.964V160.244H485.217V157.796C483.233 159.812 480.609 160.82 477.345 160.82ZM475.617 152.996C475.617 153.796 475.921 154.42 476.529 154.868C477.137 155.316 477.889 155.54 478.785 155.54C480.577 155.54 482.017 154.98 483.105 153.86C484.193 152.74 484.737 151.38 484.737 149.78V148.964L478.785 150.02C477.761 150.212 476.977 150.548 476.433 151.028C475.889 151.476 475.617 152.132 475.617 152.996ZM497.217 160.244V134.036H503.937V137.252C504.609 135.972 505.585 135.028 506.865 134.42C508.145 133.78 509.617 133.46 511.281 133.46C513.265 133.46 514.993 133.876 516.465 134.708C517.969 135.54 519.137 136.708 519.969 138.212C520.801 139.684 521.217 141.412 521.217 143.396V160.244H514.017V144.932C514.017 143.428 513.569 142.228 512.673 141.332C511.777 140.404 510.625 139.94 509.217 139.94C507.809 139.94 506.657 140.404 505.761 141.332C504.865 142.228 504.417 143.428 504.417 144.932V160.244H497.217ZM538.816 170.804C536.8 170.804 534.928 170.468 533.2 169.796C531.472 169.124 529.984 168.18 528.736 166.964C527.52 165.78 526.64 164.372 526.096 162.74L532.768 160.388C533.12 161.604 533.84 162.564 534.928 163.268C536.016 163.972 537.312 164.324 538.816 164.324C540.608 164.324 542.016 163.828 543.04 162.836C544.064 161.876 544.576 160.548 544.576 158.852V156.356C542.848 158.084 540.512 158.948 537.568 158.948C535.136 158.948 532.96 158.404 531.04 157.316C529.12 156.196 527.616 154.676 526.528 152.756C525.44 150.804 524.896 148.596 524.896 146.132C524.896 143.668 525.44 141.492 526.528 139.604C527.616 137.684 529.104 136.18 530.992 135.092C532.88 134.004 535.024 133.46 537.424 133.46C540.656 133.46 543.2 134.564 545.056 136.772V134.036H551.776V158.852C551.776 161.156 551.216 163.204 550.096 164.996C548.976 166.82 547.44 168.244 545.488 169.268C543.568 170.292 541.344 170.804 538.816 170.804ZM538.576 152.42C540.368 152.42 541.808 151.86 542.896 150.74C544.016 149.588 544.576 148.084 544.576 146.228C544.576 144.34 544.016 142.82 542.896 141.668C541.808 140.516 540.368 139.94 538.576 139.94C536.752 139.94 535.248 140.532 534.064 141.716C532.912 142.868 532.336 144.372 532.336 146.228C532.336 148.052 532.912 149.54 534.064 150.692C535.248 151.844 536.752 152.42 538.576 152.42ZM557.077 160.244V123.908H564.277V143.492L573.157 134.036H582.037L572.533 144.596L581.989 160.244H573.829L567.157 149.06L564.277 152.228V160.244H557.077ZM585.202 160.244V134.036H591.922V137.972C592.594 136.34 593.538 135.236 594.754 134.66C596.002 134.052 597.426 133.748 599.026 133.748H600.562V139.988H598.306C596.546 139.988 595.122 140.532 594.034 141.62C592.946 142.676 592.402 144.18 592.402 146.132V160.244H585.202ZM603.717 131.684V124.484H610.917V131.684H603.717ZM603.717 160.244V134.036H610.917V160.244H603.717ZM616.186 160.244V134.036H622.906V137.252C623.578 135.972 624.554 135.028 625.834 134.42C627.114 133.78 628.586 133.46 630.25 133.46C632.234 133.46 633.962 133.876 635.434 134.708C636.938 135.54 638.106 136.708 638.938 138.212C639.77 139.684 640.186 141.412 640.186 143.396V160.244H632.986V144.932C632.986 143.428 632.538 142.228 631.642 141.332C630.746 140.404 629.594 139.94 628.186 139.94C626.778 139.94 625.626 140.404 624.73 141.332C623.834 142.228 623.386 143.428 623.386 144.932V160.244H616.186ZM657.785 170.804C655.769 170.804 653.897 170.468 652.169 169.796C650.441 169.124 648.953 168.18 647.705 166.964C646.489 165.78 645.609 164.372 645.065 162.74L651.737 160.388C652.089 161.604 652.809 162.564 653.897 163.268C654.985 163.972 656.281 164.324 657.785 164.324C659.577 164.324 660.985 163.828 662.009 162.836C663.033 161.876 663.545 160.548 663.545 158.852V156.356C661.817 158.084 659.481 158.948 656.537 158.948C654.105 158.948 651.929 158.404 650.009 157.316C648.089 156.196 646.585 154.676 645.497 152.756C644.409 150.804 643.865 148.596 643.865 146.132C643.865 143.668 644.409 141.492 645.497 139.604C646.585 137.684 648.073 136.18 649.961 135.092C651.849 134.004 653.993 133.46 656.393 133.46C659.625 133.46 662.169 134.564 664.025 136.772V134.036H670.745V158.852C670.745 161.156 670.185 163.204 669.065 164.996C667.945 166.82 666.409 168.244 664.457 169.268C662.537 170.292 660.313 170.804 657.785 170.804ZM657.545 152.42C659.337 152.42 660.777 151.86 661.865 150.74C662.985 149.588 663.545 148.084 663.545 146.228C663.545 144.34 662.985 142.82 661.865 141.668C660.777 140.516 659.337 139.94 657.545 139.94C655.721 139.94 654.217 140.532 653.033 141.716C651.881 142.868 651.305 144.372 651.305 146.228C651.305 148.052 651.881 149.54 653.033 150.692C654.217 151.844 655.721 152.42 657.545 152.42Z" fill="#EAEAE9"/>
<defs>
<linearGradient id="paint0_linear_1123_103" x1="-12.0262" y1="118.14" x2="280.146" y2="87.4318" gradientUnits="userSpaceOnUse">
<stop offset="0.276954" stop-color="#FFED15"/>
<stop offset="1" stop-color="#FAB255"/>
</linearGradient>
<linearGradient id="paint1_linear_1123_103" x1="-12.0262" y1="118.14" x2="280.146" y2="87.4318" gradientUnits="userSpaceOnUse">
<stop offset="0.276954" stop-color="#FFED15"/>
<stop offset="1" stop-color="#FAB255"/>
</linearGradient>
<linearGradient id="paint2_linear_1123_103" x1="-12.0262" y1="118.14" x2="280.146" y2="87.4318" gradientUnits="userSpaceOnUse">
<stop offset="0.276954" stop-color="#FFED15"/>
<stop offset="1" stop-color="#FAB255"/>
</linearGradient>
<linearGradient id="paint3_linear_1123_103" x1="-12.0262" y1="118.14" x2="280.146" y2="87.4318" gradientUnits="userSpaceOnUse">
<stop offset="0.276954" stop-color="#FFED15"/>
<stop offset="1" stop-color="#FAB255"/>
</linearGradient>
<linearGradient id="paint4_linear_1123_103" x1="-12.0262" y1="118.14" x2="280.146" y2="87.4318" gradientUnits="userSpaceOnUse">
<stop offset="0.276954" stop-color="#FFED15"/>
<stop offset="1" stop-color="#FAB255"/>
</linearGradient>
<linearGradient id="paint5_linear_1123_103" x1="-12.0262" y1="118.14" x2="280.146" y2="87.4318" gradientUnits="userSpaceOnUse">
<stop offset="0.276954" stop-color="#FFED15"/>
<stop offset="1" stop-color="#FAB255"/>
</linearGradient>
<linearGradient id="paint6_linear_1123_103" x1="-12.0262" y1="118.14" x2="280.146" y2="87.4318" gradientUnits="userSpaceOnUse">
<stop offset="0.276954" stop-color="#FFED15"/>
<stop offset="1" stop-color="#FAB255"/>
</linearGradient>
<linearGradient id="paint7_linear_1123_103" x1="-12.0262" y1="118.14" x2="280.146" y2="87.4318" gradientUnits="userSpaceOnUse">
<stop offset="0.276954" stop-color="#FFED15"/>
<stop offset="1" stop-color="#FAB255"/>
</linearGradient>
</defs>
</svg>
